<svg xmlns="http://www.w3.org/2000/svg" width="1200" height="900" viewBox="0 0 1200 900" fill="none" aria-hidden="true">
  <defs>
    <linearGradient id="a1" x1="0%" y1="50%" x2="100%" y2="50%">
      <stop offset="0%" stop-color="#22d3ee"/>
      <stop offset="100%" stop-color="#818cf8"/>
    </linearGradient>
  </defs>
  <rect width="1200" height="900" rx="32" fill="#0f0d14"/>
  <rect x="80" y="140" width="1040" height="620" rx="24" fill="#16131f" stroke="#2a2438" stroke-width="2"/>
  <g stroke="url(#a1)" stroke-width="3" stroke-linecap="round" fill="none" opacity="0.85">
    <circle cx="220" cy="320" r="36" fill="#1c1828"/>
    <circle cx="420" cy="320" r="36" fill="#1c1828"/>
    <circle cx="620" cy="320" r="36" fill="#1c1828"/>
    <circle cx="820" cy="320" r="36" fill="#1c1828"/>
    <circle cx="1020" cy="320" r="36" fill="#1c1828"/>
    <path d="M256 320 H384 M444 320 H584 M656 320 H784 M856 320 H984"/>
    <path d="M620 356 V480 M220 356 V440 L420 520 M820 356 V440 L620 520"/>
  </g>
  <rect x="140" y="560" width="920" height="160" rx="16" fill="#1c1828" stroke="#2a2438"/>
  <rect x="172" y="592" width="200" height="96" rx="10" fill="#252036"/>
  <rect x="396" y="592" width="200" height="96" rx="10" fill="#252036"/>
  <rect x="620" y="592" width="200" height="96" rx="10" fill="#252036"/>
  <rect x="844" y="592" width="184" height="96" rx="10" fill="#252036"/>
  <rect x="172" y="612" width="120" height="10" rx="2" fill="#3d3558"/>
  <rect x="396" y="612" width="120" height="10" rx="2" fill="#3d3558"/>
  <rect x="620" y="612" width="120" height="10" rx="2" fill="#3d3558"/>
  <rect x="844" y="612" width="100" height="10" rx="2" fill="#3d3558"/>
</svg>
